{
	"asset":{
		"generator":"Khronos glTF Blender I/O v3.6.27",
		"version":"2.0"
	},
	"scene":0,
	"scenes":[
		{
			"extras":{
				"scatter_properties":{},
				"qremesher":{},
				"GRT_Action_Bakery_Global_Settings":{
					"Source_Armature":{},
					"Target_Armature":{}
				},
				"b_export":1,
				"export_path":"/Users/carlosmartorell/Desktop/shoeg-lev-realities-in-transition/a-frame test/",
				"s_output":"exporting...",
				"b_settings":1,
				"b_vr_controllers":0,
				"b_renderer":1,
				"b_aa":1,
				"b_colorManagement":1,
				"b_stats":1,
				"b_export_single_model":0,
				"s_aframe_version":"1.5.0",
				"b_player":1,
				"b_interactive":1,
				"b_sortTransparentObjects":1,
				"b_logarithmicDepthBuffer":1,
				"f_player_speed":0.029999999329447746,
				"s_anisotropy":"2",
				"b_cubemap_background":0,
				"b_show_env_sky":0,
				"b_cubemap":0,
				"b_camera_cube":0,
				"s_cubemap_ext":"jpg",
				"s_cubemap_path":"/Users/carlosmartorell/Desktop/shoeg-lev-realities-in-transition/a-frame\\ test/aframe-prj/env",
				"b_raycast":0
			},
			"name":"Scene",
			"nodes":[
				0
			]
		}
	],
	"nodes":[
		{
			"extras":{
				"ant_landscape":{},
				"diff_growth_settings":{
					"growth_dir_obj":{}
				}
			},
			"mesh":0,
			"name":"BananaPlant_1_Branch",
			"rotation":[
				0,
				0.5265708565711975,
				0,
				0.8501313328742981
			],
			"scale":[
				0.11695599555969238,
				0.13916601240634918,
				0.1340114176273346
			]
		}
	],
	"materials":[
		{
			"doubleSided":true,
			"name":"algae_tree",
			"pbrMetallicRoughness":{
				"baseColorTexture":{
					"index":0
				},
				"metallicFactor":0,
				"roughnessFactor":0.5
			}
		}
	],
	"meshes":[
		{
			"name":"Cube.032",
			"primitives":[
				{
					"attributes":{
						"POSITION":0,
						"NORMAL":1,
						"TEXCOORD_0":2,
						"TANGENT":3
					},
					"indices":4,
					"material":0
				}
			]
		}
	],
	"textures":[
		{
			"sampler":0,
			"source":0
		}
	],
	"images":[
		{
			"bufferView":5,
			"mimeType":"image/png",
			"name":"algae_tree_3"
		}
	],
	"accessors":[
		{
			"bufferView":0,
			"componentType":5126,
			"count":411,
			"max":[
				6.496912479400635,
				18.59855842590332,
				5.931488037109375
			],
			"min":[
				-6.434654235839844,
				-13.54151439666748,
				-6.118273735046387
			],
			"type":"VEC3"
		},
		{
			"bufferView":1,
			"componentType":5126,
			"count":411,
			"type":"VEC3"
		},
		{
			"bufferView":2,
			"componentType":5126,
			"count":411,
			"type":"VEC2"
		},
		{
			"bufferView":3,
			"componentType":5126,
			"count":411,
			"type":"VEC4"
		},
		{
			"bufferView":4,
			"componentType":5123,
			"count":411,
			"type":"SCALAR"
		}
	],
	"bufferViews":[
		{
			"buffer":0,
			"byteLength":4932,
			"byteOffset":0,
			"target":34962
		},
		{
			"buffer":0,
			"byteLength":4932,
			"byteOffset":4932,
			"target":34962
		},
		{
			"buffer":0,
			"byteLength":3288,
			"byteOffset":9864,
			"target":34962
		},
		{
			"buffer":0,
			"byteLength":6576,
			"byteOffset":13152,
			"target":34962
		},
		{
			"buffer":0,
			"byteLength":822,
			"byteOffset":19728,
			"target":34963
		},
		{
			"buffer":0,
			"byteLength":145486,
			"byteOffset":20552
		}
	],
	"samplers":[
		{
			"magFilter":9729,
			"minFilter":9987
		}
	],
	"buffers":[
		{
			"byteLength":166040,
			"uri":"data:application/octet-stream;base64,"
		}
	]
}
