{
	"asset":{
		"generator":"Khronos glTF Blender I/O v3.6.27",
		"version":"2.0"
	},
	"scene":0,
	"scenes":[
		{
			"extras":{
				"scatter_properties":{},
				"qremesher":{},
				"GRT_Action_Bakery_Global_Settings":{
					"Source_Armature":{},
					"Target_Armature":{}
				},
				"b_export":1,
				"export_path":"/Users/carlosmartorell/Desktop/shoeg-lev-realities-in-transition/a-frame test/",
				"s_output":"exporting...",
				"b_settings":1,
				"b_vr_controllers":0,
				"b_renderer":1,
				"b_aa":1,
				"b_colorManagement":1,
				"b_stats":1,
				"b_export_single_model":0,
				"s_aframe_version":"1.5.0",
				"b_player":1,
				"b_interactive":1,
				"b_sortTransparentObjects":1,
				"b_logarithmicDepthBuffer":1,
				"f_player_speed":0.029999999329447746,
				"s_anisotropy":"2",
				"b_cubemap_background":0,
				"b_show_env_sky":0,
				"b_cubemap":0,
				"b_camera_cube":0,
				"s_cubemap_ext":"jpg",
				"s_cubemap_path":"/Users/carlosmartorell/Desktop/shoeg-lev-realities-in-transition/a-frame\\ test/aframe-prj/env",
				"b_raycast":0
			},
			"name":"Scene",
			"nodes":[
				0
			]
		}
	],
	"nodes":[
		{
			"extras":{
				"ant_landscape":{},
				"diff_growth_settings":{
					"growth_dir_obj":{}
				}
			},
			"mesh":0,
			"name":"Floor_GreenStrips.001",
			"rotation":[
				-0.00021310745796654373,
				-0.18039736151695251,
				0.0011619407450780272,
				0.9835931062698364
			],
			"scale":[
				-63.4105110168457,
				-63.41050338745117,
				-63.4105110168457
			]
		}
	],
	"materials":[
		{
			"doubleSided":true,
			"name":"marble_green",
			"pbrMetallicRoughness":{
				"baseColorTexture":{
					"index":0
				},
				"metallicFactor":0,
				"roughnessFactor":0.5
			}
		}
	],
	"meshes":[
		{
			"name":"Plane.038",
			"primitives":[
				{
					"attributes":{
						"POSITION":0,
						"NORMAL":1,
						"TEXCOORD_0":2,
						"TANGENT":3
					},
					"indices":4,
					"material":0
				}
			]
		}
	],
	"textures":[
		{
			"sampler":0,
			"source":0
		}
	],
	"images":[
		{
			"bufferView":5,
			"mimeType":"image/png",
			"name":"marble_green_1"
		}
	],
	"accessors":[
		{
			"bufferView":0,
			"componentType":5126,
			"count":243,
			"max":[
				0.9742898344993591,
				0.7337266802787781,
				1.0180683135986328
			],
			"min":[
				-1.025710105895996,
				-0.5316576361656189,
				-0.9819316267967224
			],
			"type":"VEC3"
		},
		{
			"bufferView":1,
			"componentType":5126,
			"count":243,
			"type":"VEC3"
		},
		{
			"bufferView":2,
			"componentType":5126,
			"count":243,
			"type":"VEC2"
		},
		{
			"bufferView":3,
			"componentType":5126,
			"count":243,
			"type":"VEC4"
		},
		{
			"bufferView":4,
			"componentType":5123,
			"count":243,
			"type":"SCALAR"
		}
	],
	"bufferViews":[
		{
			"buffer":0,
			"byteLength":2916,
			"byteOffset":0,
			"target":34962
		},
		{
			"buffer":0,
			"byteLength":2916,
			"byteOffset":2916,
			"target":34962
		},
		{
			"buffer":0,
			"byteLength":1944,
			"byteOffset":5832,
			"target":34962
		},
		{
			"buffer":0,
			"byteLength":3888,
			"byteOffset":7776,
			"target":34962
		},
		{
			"buffer":0,
			"byteLength":486,
			"byteOffset":11664,
			"target":34963
		},
		{
			"buffer":0,
			"byteLength":142173,
			"byteOffset":12152
		}
	],
	"samplers":[
		{
			"magFilter":9729,
			"minFilter":9987
		}
	],
	"buffers":[
		{
			"byteLength":154328,
			"uri":"data:application/octet-stream;base64,"
		}
	]
}
