{
	"asset":{
		"generator":"Khronos glTF Blender I/O v3.6.27",
		"version":"2.0"
	},
	"scene":0,
	"scenes":[
		{
			"extras":{
				"scatter_properties":{},
				"qremesher":{},
				"GRT_Action_Bakery_Global_Settings":{
					"Source_Armature":{},
					"Target_Armature":{}
				},
				"b_export":1,
				"export_path":"/Users/carlosmartorell/Desktop/shoeg-lev-realities-in-transition/a-frame test/",
				"s_output":"exporting...",
				"b_settings":1,
				"b_vr_controllers":0,
				"b_renderer":1,
				"b_aa":1,
				"b_colorManagement":1,
				"b_stats":1,
				"b_export_single_model":0,
				"s_aframe_version":"1.5.0",
				"b_player":1,
				"b_interactive":1,
				"b_sortTransparentObjects":1,
				"b_logarithmicDepthBuffer":1,
				"f_player_speed":0.029999999329447746,
				"s_anisotropy":"2",
				"b_cubemap_background":0,
				"b_show_env_sky":1,
				"b_cubemap":0,
				"b_camera_cube":0,
				"s_cubemap_ext":"jpg",
				"s_cubemap_path":"/Users/carlosmartorell/Desktop/shoeg-lev-realities-in-transition/a-frame\\ test/aframe-prj/env",
				"b_raycast":0
			},
			"name":"Scene",
			"nodes":[
				0
			]
		}
	],
	"nodes":[
		{
			"extras":{
				"ant_landscape":{},
				"diff_growth_settings":{
					"growth_dir_obj":{}
				}
			},
			"mesh":0,
			"name":"Forest_1_VertGrass",
			"rotation":[
				0,
				-0.14975492656230927,
				0,
				0.9887231588363647
			],
			"scale":[
				0.04050963371992111,
				2.433222532272339,
				0.04050963371992111
			]
		}
	],
	"materials":[
		{
			"doubleSided":true,
			"name":"algae_tree_2",
			"pbrMetallicRoughness":{
				"baseColorTexture":{
					"index":0
				},
				"metallicFactor":0,
				"roughnessFactor":0.5
			}
		},
		{
			"doubleSided":true,
			"name":"algae_tree.002",
			"pbrMetallicRoughness":{
				"baseColorTexture":{
					"index":1
				},
				"metallicFactor":0,
				"roughnessFactor":0.5
			}
		},
		{
			"doubleSided":true,
			"name":"algae_tree.003",
			"pbrMetallicRoughness":{
				"baseColorTexture":{
					"index":2
				},
				"metallicFactor":0,
				"roughnessFactor":0.5
			}
		},
		{
			"doubleSided":true,
			"name":"algae_tree.004",
			"pbrMetallicRoughness":{
				"baseColorTexture":{
					"index":3
				},
				"metallicFactor":0,
				"roughnessFactor":0.5
			}
		},
		{
			"doubleSided":true,
			"name":"algae_tree.005",
			"pbrMetallicRoughness":{
				"baseColorTexture":{
					"index":4
				},
				"metallicFactor":0,
				"roughnessFactor":0.5
			}
		},
		{
			"doubleSided":true,
			"name":"algae_tree.006",
			"pbrMetallicRoughness":{
				"baseColorTexture":{
					"index":5
				},
				"metallicFactor":0,
				"roughnessFactor":0.5
			}
		}
	],
	"meshes":[
		{
			"name":"Cube.024",
			"primitives":[
				{
					"attributes":{
						"POSITION":0,
						"NORMAL":1,
						"TEXCOORD_0":2,
						"TANGENT":3
					},
					"indices":4,
					"material":0
				},
				{
					"attributes":{
						"POSITION":5,
						"NORMAL":6,
						"TEXCOORD_0":7,
						"TANGENT":8
					},
					"indices":9,
					"material":1
				},
				{
					"attributes":{
						"POSITION":10,
						"NORMAL":11,
						"TEXCOORD_0":12,
						"TANGENT":13
					},
					"indices":14,
					"material":2
				},
				{
					"attributes":{
						"POSITION":15,
						"NORMAL":16,
						"TEXCOORD_0":17,
						"TANGENT":18
					},
					"indices":19,
					"material":3
				},
				{
					"attributes":{
						"POSITION":20,
						"NORMAL":21,
						"TEXCOORD_0":22,
						"TANGENT":23
					},
					"indices":24,
					"material":4
				},
				{
					"attributes":{
						"POSITION":25,
						"NORMAL":26,
						"TEXCOORD_0":27,
						"TANGENT":28
					},
					"indices":29,
					"material":5
				}
			]
		}
	],
	"textures":[
		{
			"sampler":0,
			"source":0
		},
		{
			"sampler":0,
			"source":1
		},
		{
			"sampler":0,
			"source":0
		},
		{
			"sampler":0,
			"source":1
		},
		{
			"sampler":0,
			"source":1
		},
		{
			"sampler":0,
			"source":1
		}
	],
	"images":[
		{
			"bufferView":5,
			"mimeType":"image/png",
			"name":"algae_tree_4"
		},
		{
			"bufferView":11,
			"mimeType":"image/png",
			"name":"algae_tree_3"
		}
	],
	"accessors":[
		{
			"bufferView":0,
			"componentType":5126,
			"count":36,
			"max":[
				-4.805522441864014,
				1.536410927772522,
				-5.445951461791992
			],
			"min":[
				-6.807825565338135,
				-0.4660906195640564,
				-7.45192289352417
			],
			"type":"VEC3"
		},
		{
			"bufferView":1,
			"componentType":5126,
			"count":36,
			"type":"VEC3"
		},
		{
			"bufferView":2,
			"componentType":5126,
			"count":36,
			"type":"VEC2"
		},
		{
			"bufferView":3,
			"componentType":5126,
			"count":36,
			"type":"VEC4"
		},
		{
			"bufferView":4,
			"componentType":5123,
			"count":36,
			"type":"SCALAR"
		},
		{
			"bufferView":6,
			"componentType":5126,
			"count":36,
			"max":[
				3.9096813201904297,
				1.123317837715149,
				-7.368288993835449
			],
			"min":[
				1.4791992902755737,
				-0.6182330250740051,
				-9.808206558227539
			],
			"type":"VEC3"
		},
		{
			"bufferView":7,
			"componentType":5126,
			"count":36,
			"type":"VEC3"
		},
		{
			"bufferView":8,
			"componentType":5126,
			"count":36,
			"type":"VEC2"
		},
		{
			"bufferView":9,
			"componentType":5126,
			"count":36,
			"type":"VEC4"
		},
		{
			"bufferView":10,
			"componentType":5123,
			"count":36,
			"type":"SCALAR"
		},
		{
			"bufferView":12,
			"componentType":5126,
			"count":36,
			"max":[
				6.33827543258667,
				0.8226909041404724,
				9.828195571899414
			],
			"min":[
				3.888935089111328,
				-0.9165856242179871,
				7.3722758293151855
			],
			"type":"VEC3"
		},
		{
			"bufferView":13,
			"componentType":5126,
			"count":36,
			"type":"VEC3"
		},
		{
			"bufferView":14,
			"componentType":5126,
			"count":36,
			"type":"VEC2"
		},
		{
			"bufferView":15,
			"componentType":5126,
			"count":36,
			"type":"VEC4"
		},
		{
			"bufferView":16,
			"componentType":5123,
			"count":36,
			"type":"SCALAR"
		},
		{
			"bufferView":17,
			"componentType":5126,
			"count":36,
			"max":[
				8.28438663482666,
				0.5719535946846008,
				0.4491328299045563
			],
			"min":[
				6.553455829620361,
				-1.1650406122207642,
				-1.2856675386428833
			],
			"type":"VEC3"
		},
		{
			"bufferView":18,
			"componentType":5126,
			"count":36,
			"type":"VEC3"
		},
		{
			"bufferView":19,
			"componentType":5126,
			"count":36,
			"type":"VEC2"
		},
		{
			"bufferView":20,
			"componentType":5126,
			"count":36,
			"type":"VEC4"
		},
		{
			"bufferView":21,
			"componentType":5123,
			"count":36,
			"type":"SCALAR"
		},
		{
			"bufferView":22,
			"componentType":5126,
			"count":36,
			"max":[
				-0.5723820328712463,
				0.7474522590637207,
				0.23732273280620575
			],
			"min":[
				-3.1391243934631348,
				-0.9912407994270325,
				-2.3667714595794678
			],
			"type":"VEC3"
		},
		{
			"bufferView":23,
			"componentType":5126,
			"count":36,
			"type":"VEC3"
		},
		{
			"bufferView":24,
			"componentType":5126,
			"count":36,
			"type":"VEC2"
		},
		{
			"bufferView":25,
			"componentType":5126,
			"count":36,
			"type":"VEC4"
		},
		{
			"bufferView":26,
			"componentType":5123,
			"count":36,
			"type":"SCALAR"
		},
		{
			"bufferView":27,
			"componentType":5126,
			"count":36,
			"max":[
				-6.484155178070068,
				0.20047758519649506,
				8.913949966430664
			],
			"min":[
				-8.6508150100708,
				-0.8381715416908264,
				6.914082050323486
			],
			"type":"VEC3"
		},
		{
			"bufferView":28,
			"componentType":5126,
			"count":36,
			"type":"VEC3"
		},
		{
			"bufferView":29,
			"componentType":5126,
			"count":36,
			"type":"VEC2"
		},
		{
			"bufferView":30,
			"componentType":5126,
			"count":36,
			"type":"VEC4"
		},
		{
			"bufferView":31,
			"componentType":5123,
			"count":36,
			"type":"SCALAR"
		}
	],
	"bufferViews":[
		{
			"buffer":0,
			"byteLength":432,
			"byteOffset":0,
			"target":34962
		},
		{
			"buffer":0,
			"byteLength":432,
			"byteOffset":432,
			"target":34962
		},
		{
			"buffer":0,
			"byteLength":288,
			"byteOffset":864,
			"target":34962
		},
		{
			"buffer":0,
			"byteLength":576,
			"byteOffset":1152,
			"target":34962
		},
		{
			"buffer":0,
			"byteLength":72,
			"byteOffset":1728,
			"target":34963
		},
		{
			"buffer":0,
			"byteLength":101842,
			"byteOffset":1800
		},
		{
			"buffer":0,
			"byteLength":432,
			"byteOffset":103644,
			"target":34962
		},
		{
			"buffer":0,
			"byteLength":432,
			"byteOffset":104076,
			"target":34962
		},
		{
			"buffer":0,
			"byteLength":288,
			"byteOffset":104508,
			"target":34962
		},
		{
			"buffer":0,
			"byteLength":576,
			"byteOffset":104796,
			"target":34962
		},
		{
			"buffer":0,
			"byteLength":72,
			"byteOffset":105372,
			"target":34963
		},
		{
			"buffer":0,
			"byteLength":145486,
			"byteOffset":105444
		},
		{
			"buffer":0,
			"byteLength":432,
			"byteOffset":250932,
			"target":34962
		},
		{
			"buffer":0,
			"byteLength":432,
			"byteOffset":251364,
			"target":34962
		},
		{
			"buffer":0,
			"byteLength":288,
			"byteOffset":251796,
			"target":34962
		},
		{
			"buffer":0,
			"byteLength":576,
			"byteOffset":252084,
			"target":34962
		},
		{
			"buffer":0,
			"byteLength":72,
			"byteOffset":252660,
			"target":34963
		},
		{
			"buffer":0,
			"byteLength":432,
			"byteOffset":252732,
			"target":34962
		},
		{
			"buffer":0,
			"byteLength":432,
			"byteOffset":253164,
			"target":34962
		},
		{
			"buffer":0,
			"byteLength":288,
			"byteOffset":253596,
			"target":34962
		},
		{
			"buffer":0,
			"byteLength":576,
			"byteOffset":253884,
			"target":34962
		},
		{
			"buffer":0,
			"byteLength":72,
			"byteOffset":254460,
			"target":34963
		},
		{
			"buffer":0,
			"byteLength":432,
			"byteOffset":254532,
			"target":34962
		},
		{
			"buffer":0,
			"byteLength":432,
			"byteOffset":254964,
			"target":34962
		},
		{
			"buffer":0,
			"byteLength":288,
			"byteOffset":255396,
			"target":34962
		},
		{
			"buffer":0,
			"byteLength":576,
			"byteOffset":255684,
			"target":34962
		},
		{
			"buffer":0,
			"byteLength":72,
			"byteOffset":256260,
			"target":34963
		},
		{
			"buffer":0,
			"byteLength":432,
			"byteOffset":256332,
			"target":34962
		},
		{
			"buffer":0,
			"byteLength":432,
			"byteOffset":256764,
			"target":34962
		},
		{
			"buffer":0,
			"byteLength":288,
			"byteOffset":257196,
			"target":34962
		},
		{
			"buffer":0,
			"byteLength":576,
			"byteOffset":257484,
			"target":34962
		},
		{
			"buffer":0,
			"byteLength":72,
			"byteOffset":258060,
			"target":34963
		}
	],
	"samplers":[
		{
			"magFilter":9729,
			"minFilter":9987
		}
	],
	"buffers":[
		{
			"byteLength":258132,
			"uri":"data:application/octet-stream;base64,"
		}
	]
}
