{
	"asset":{
		"generator":"Khronos glTF Blender I/O v3.6.27",
		"version":"2.0"
	},
	"scene":0,
	"scenes":[
		{
			"extras":{
				"scatter_properties":{},
				"qremesher":{},
				"GRT_Action_Bakery_Global_Settings":{
					"Source_Armature":{},
					"Target_Armature":{}
				},
				"b_export":1,
				"export_path":"/Users/carlosmartorell/Desktop/shoeg-lev-realities-in-transition/a-frame test/",
				"s_output":"exporting...",
				"b_settings":1,
				"b_vr_controllers":0,
				"b_renderer":1,
				"b_aa":1,
				"b_colorManagement":1,
				"b_stats":1,
				"b_export_single_model":0,
				"s_aframe_version":"1.5.0",
				"b_player":1,
				"b_interactive":1,
				"b_sortTransparentObjects":1,
				"b_logarithmicDepthBuffer":1,
				"f_player_speed":0.029999999329447746,
				"s_anisotropy":"2",
				"b_cubemap_background":0,
				"b_show_env_sky":0,
				"b_cubemap":0,
				"b_camera_cube":0,
				"s_cubemap_ext":"jpg",
				"s_cubemap_path":"/Users/carlosmartorell/Desktop/shoeg-lev-realities-in-transition/a-frame\\ test/aframe-prj/env",
				"b_raycast":0
			},
			"name":"Scene",
			"nodes":[
				0
			]
		}
	],
	"nodes":[
		{
			"extras":{
				"ant_landscape":{}
			},
			"mesh":0,
			"name":"Fungi_1",
			"rotation":[
				0,
				0.2251349687576294,
				0,
				0.9743276834487915
			],
			"scale":[
				3.3112704753875732,
				3.299968719482422,
				2.950181007385254
			]
		}
	],
	"materials":[
		{
			"doubleSided":true,
			"name":"fungi_lat",
			"pbrMetallicRoughness":{
				"baseColorTexture":{
					"index":0
				},
				"metallicFactor":0,
				"roughnessFactor":0.5
			}
		},
		{
			"doubleSided":true,
			"name":"fungi_red",
			"pbrMetallicRoughness":{
				"baseColorTexture":{
					"index":1
				},
				"metallicFactor":0,
				"roughnessFactor":0.5
			}
		},
		{
			"doubleSided":true,
			"name":"fungi_mucosa",
			"pbrMetallicRoughness":{
				"baseColorTexture":{
					"index":2
				},
				"metallicFactor":0,
				"roughnessFactor":0.5
			}
		},
		{
			"doubleSided":true,
			"name":"fungi_yellow",
			"pbrMetallicRoughness":{
				"baseColorTexture":{
					"index":3
				},
				"metallicFactor":0,
				"roughnessFactor":0.5
			}
		}
	],
	"meshes":[
		{
			"name":"Polygon.105",
			"primitives":[
				{
					"attributes":{
						"POSITION":0,
						"NORMAL":1,
						"TEXCOORD_0":2,
						"TANGENT":3
					},
					"indices":4,
					"material":0
				},
				{
					"attributes":{
						"POSITION":5,
						"NORMAL":6,
						"TEXCOORD_0":7,
						"TANGENT":8
					},
					"indices":9,
					"material":1
				},
				{
					"attributes":{
						"POSITION":10,
						"NORMAL":11,
						"TEXCOORD_0":12,
						"TANGENT":13
					},
					"indices":14,
					"material":2
				},
				{
					"attributes":{
						"POSITION":15,
						"NORMAL":16,
						"TEXCOORD_0":17,
						"TANGENT":18
					},
					"indices":19,
					"material":3
				}
			]
		}
	],
	"textures":[
		{
			"sampler":0,
			"source":0
		},
		{
			"sampler":0,
			"source":1
		},
		{
			"sampler":0,
			"source":2
		},
		{
			"sampler":0,
			"source":3
		}
	],
	"images":[
		{
			"bufferView":5,
			"mimeType":"image/png",
			"name":"fungi_lat"
		},
		{
			"bufferView":11,
			"mimeType":"image/png",
			"name":"fungi_red_t"
		},
		{
			"bufferView":17,
			"mimeType":"image/png",
			"name":"fungi_mucosa"
		},
		{
			"bufferView":23,
			"mimeType":"image/png",
			"name":"fungi_yellow"
		}
	],
	"accessors":[
		{
			"bufferView":0,
			"componentType":5126,
			"count":1399,
			"max":[
				1.1970195770263672,
				0.3610636293888092,
				1.0120166540145874
			],
			"min":[
				-1.0817904472351074,
				-2.5693039894104004,
				-1.1349862813949585
			],
			"type":"VEC3"
		},
		{
			"bufferView":1,
			"componentType":5126,
			"count":1399,
			"type":"VEC3"
		},
		{
			"bufferView":2,
			"componentType":5126,
			"count":1399,
			"type":"VEC2"
		},
		{
			"bufferView":3,
			"componentType":5126,
			"count":1399,
			"type":"VEC4"
		},
		{
			"bufferView":4,
			"componentType":5123,
			"count":1407,
			"type":"SCALAR"
		},
		{
			"bufferView":6,
			"componentType":5126,
			"count":3723,
			"max":[
				1.2095956802368164,
				0.8687632083892822,
				0.9246525764465332
			],
			"min":[
				-1.0988481044769287,
				-0.8595193028450012,
				-0.9709895253181458
			],
			"type":"VEC3"
		},
		{
			"bufferView":7,
			"componentType":5126,
			"count":3723,
			"type":"VEC3"
		},
		{
			"bufferView":8,
			"componentType":5126,
			"count":3723,
			"type":"VEC2"
		},
		{
			"bufferView":9,
			"componentType":5126,
			"count":3723,
			"type":"VEC4"
		},
		{
			"bufferView":10,
			"componentType":5123,
			"count":3723,
			"type":"SCALAR"
		},
		{
			"bufferView":12,
			"componentType":5126,
			"count":1773,
			"max":[
				1.2095426321029663,
				0.8698866367340088,
				0.924697756767273
			],
			"min":[
				-1.0975315570831299,
				-0.8198647499084473,
				-0.9708623886108398
			],
			"type":"VEC3"
		},
		{
			"bufferView":13,
			"componentType":5126,
			"count":1773,
			"type":"VEC3"
		},
		{
			"bufferView":14,
			"componentType":5126,
			"count":1773,
			"type":"VEC2"
		},
		{
			"bufferView":15,
			"componentType":5126,
			"count":1773,
			"type":"VEC4"
		},
		{
			"bufferView":16,
			"componentType":5123,
			"count":1773,
			"type":"SCALAR"
		},
		{
			"bufferView":18,
			"componentType":5126,
			"count":834,
			"max":[
				0.9615702629089355,
				3.033390998840332,
				0.8932742476463318
			],
			"min":[
				-1.5870577096939087,
				-0.6006403565406799,
				-0.9713910222053528
			],
			"type":"VEC3"
		},
		{
			"bufferView":19,
			"componentType":5126,
			"count":834,
			"type":"VEC3"
		},
		{
			"bufferView":20,
			"componentType":5126,
			"count":834,
			"type":"VEC2"
		},
		{
			"bufferView":21,
			"componentType":5126,
			"count":834,
			"type":"VEC4"
		},
		{
			"bufferView":22,
			"componentType":5123,
			"count":912,
			"type":"SCALAR"
		}
	],
	"bufferViews":[
		{
			"buffer":0,
			"byteLength":16788,
			"byteOffset":0,
			"target":34962
		},
		{
			"buffer":0,
			"byteLength":16788,
			"byteOffset":16788,
			"target":34962
		},
		{
			"buffer":0,
			"byteLength":11192,
			"byteOffset":33576,
			"target":34962
		},
		{
			"buffer":0,
			"byteLength":22384,
			"byteOffset":44768,
			"target":34962
		},
		{
			"buffer":0,
			"byteLength":2814,
			"byteOffset":67152,
			"target":34963
		},
		{
			"buffer":0,
			"byteLength":178412,
			"byteOffset":69968
		},
		{
			"buffer":0,
			"byteLength":44676,
			"byteOffset":248380,
			"target":34962
		},
		{
			"buffer":0,
			"byteLength":44676,
			"byteOffset":293056,
			"target":34962
		},
		{
			"buffer":0,
			"byteLength":29784,
			"byteOffset":337732,
			"target":34962
		},
		{
			"buffer":0,
			"byteLength":59568,
			"byteOffset":367516,
			"target":34962
		},
		{
			"buffer":0,
			"byteLength":7446,
			"byteOffset":427084,
			"target":34963
		},
		{
			"buffer":0,
			"byteLength":112190,
			"byteOffset":434532
		},
		{
			"buffer":0,
			"byteLength":21276,
			"byteOffset":546724,
			"target":34962
		},
		{
			"buffer":0,
			"byteLength":21276,
			"byteOffset":568000,
			"target":34962
		},
		{
			"buffer":0,
			"byteLength":14184,
			"byteOffset":589276,
			"target":34962
		},
		{
			"buffer":0,
			"byteLength":28368,
			"byteOffset":603460,
			"target":34962
		},
		{
			"buffer":0,
			"byteLength":3546,
			"byteOffset":631828,
			"target":34963
		},
		{
			"buffer":0,
			"byteLength":86545,
			"byteOffset":635376
		},
		{
			"buffer":0,
			"byteLength":10008,
			"byteOffset":721924,
			"target":34962
		},
		{
			"buffer":0,
			"byteLength":10008,
			"byteOffset":731932,
			"target":34962
		},
		{
			"buffer":0,
			"byteLength":6672,
			"byteOffset":741940,
			"target":34962
		},
		{
			"buffer":0,
			"byteLength":13344,
			"byteOffset":748612,
			"target":34962
		},
		{
			"buffer":0,
			"byteLength":1824,
			"byteOffset":761956,
			"target":34963
		},
		{
			"buffer":0,
			"byteLength":51149,
			"byteOffset":763780
		}
	],
	"samplers":[
		{
			"magFilter":9729,
			"minFilter":9987
		}
	],
	"buffers":[
		{
			"byteLength":814932,
			"uri":"data:application/octet-stream;base64,"
		}
	]
}
