{
	"asset":{
		"generator":"Khronos glTF Blender I/O v3.6.27",
		"version":"2.0"
	},
	"scene":0,
	"scenes":[
		{
			"extras":{
				"scatter_properties":{},
				"qremesher":{},
				"GRT_Action_Bakery_Global_Settings":{
					"Source_Armature":{},
					"Target_Armature":{}
				},
				"b_export":1,
				"export_path":"/Users/carlosmartorell/Desktop/shoeg-lev-realities-in-transition/a-frame test/",
				"s_output":"exporting...",
				"b_settings":1,
				"b_vr_controllers":0,
				"b_renderer":1,
				"b_aa":1,
				"b_colorManagement":1,
				"b_stats":1,
				"b_export_single_model":0,
				"s_aframe_version":"1.5.0",
				"b_player":1,
				"b_interactive":1,
				"b_sortTransparentObjects":1,
				"b_logarithmicDepthBuffer":1,
				"f_player_speed":0.029999999329447746,
				"s_anisotropy":"2",
				"b_cubemap_background":0,
				"b_show_env_sky":1,
				"b_cubemap":0,
				"b_camera_cube":0,
				"s_cubemap_ext":"jpg",
				"s_cubemap_path":"/Users/carlosmartorell/Desktop/shoeg-lev-realities-in-transition/a-frame\\ test/aframe-prj/env",
				"b_raycast":0
			},
			"name":"Scene",
			"nodes":[
				0
			]
		}
	],
	"nodes":[
		{
			"extras":{
				"ant_landscape":{}
			},
			"mesh":0,
			"name":"H1_BluePlant_Branch_8",
			"rotation":[
				0,
				0.9999595284461975,
				0,
				0.00899700541049242
			],
			"scale":[
				0.2750140130519867,
				0.2750140130519867,
				0.2750140130519867
			]
		}
	],
	"materials":[
		{
			"doubleSided":true,
			"name":"blue_plant",
			"pbrMetallicRoughness":{
				"baseColorTexture":{
					"index":0
				},
				"metallicFactor":0,
				"roughnessFactor":0.5
			}
		}
	],
	"meshes":[
		{
			"name":"Plane.027",
			"primitives":[
				{
					"attributes":{
						"POSITION":0,
						"NORMAL":1,
						"TEXCOORD_0":2,
						"TANGENT":3
					},
					"indices":4,
					"material":0
				}
			]
		}
	],
	"textures":[
		{
			"sampler":0,
			"source":0
		}
	],
	"images":[
		{
			"bufferView":5,
			"mimeType":"image/png",
			"name":"blue_plant_2"
		}
	],
	"accessors":[
		{
			"bufferView":0,
			"componentType":5126,
			"count":60,
			"max":[
				2.8861351013183594,
				6.247398853302002,
				6.8494462966918945
			],
			"min":[
				-2.5637075901031494,
				-7.541765213012695,
				-15.234945297241211
			],
			"type":"VEC3"
		},
		{
			"bufferView":1,
			"componentType":5126,
			"count":60,
			"type":"VEC3"
		},
		{
			"bufferView":2,
			"componentType":5126,
			"count":60,
			"type":"VEC2"
		},
		{
			"bufferView":3,
			"componentType":5126,
			"count":60,
			"type":"VEC4"
		},
		{
			"bufferView":4,
			"componentType":5123,
			"count":84,
			"type":"SCALAR"
		}
	],
	"bufferViews":[
		{
			"buffer":0,
			"byteLength":720,
			"byteOffset":0,
			"target":34962
		},
		{
			"buffer":0,
			"byteLength":720,
			"byteOffset":720,
			"target":34962
		},
		{
			"buffer":0,
			"byteLength":480,
			"byteOffset":1440,
			"target":34962
		},
		{
			"buffer":0,
			"byteLength":960,
			"byteOffset":1920,
			"target":34962
		},
		{
			"buffer":0,
			"byteLength":168,
			"byteOffset":2880,
			"target":34963
		},
		{
			"buffer":0,
			"byteLength":136441,
			"byteOffset":3048
		}
	],
	"samplers":[
		{
			"magFilter":9729,
			"minFilter":9987
		}
	],
	"buffers":[
		{
			"byteLength":139492,
			"uri":"data:application/octet-stream;base64,"
		}
	]
}
