{
	"asset":{
		"generator":"Khronos glTF Blender I/O v3.6.27",
		"version":"2.0"
	},
	"scene":0,
	"scenes":[
		{
			"extras":{
				"scatter_properties":{},
				"qremesher":{},
				"GRT_Action_Bakery_Global_Settings":{
					"Source_Armature":{},
					"Target_Armature":{}
				},
				"b_export":1,
				"export_path":"/Users/carlosmartorell/Desktop/shoeg-lev-realities-in-transition/a-frame test/",
				"s_output":"exporting...",
				"b_settings":1,
				"b_vr_controllers":0,
				"b_renderer":1,
				"b_aa":1,
				"b_colorManagement":1,
				"b_stats":1,
				"b_export_single_model":0,
				"s_aframe_version":"1.5.0",
				"b_player":1,
				"b_interactive":1,
				"b_sortTransparentObjects":1,
				"b_logarithmicDepthBuffer":1,
				"f_player_speed":0.029999999329447746,
				"s_anisotropy":"2",
				"b_cubemap_background":0,
				"b_show_env_sky":0,
				"b_cubemap":0,
				"b_camera_cube":0,
				"s_cubemap_ext":"jpg",
				"s_cubemap_path":"/Users/carlosmartorell/Desktop/shoeg-lev-realities-in-transition/a-frame\\ test/aframe-prj/env",
				"b_raycast":0
			},
			"name":"Scene",
			"nodes":[
				0
			]
		}
	],
	"nodes":[
		{
			"extras":{
				"ant_landscape":{},
				"diff_growth_settings":{
					"growth_dir_obj":{}
				}
			},
			"mesh":0,
			"name":"Island_2_Leaf_2",
			"rotation":[
				0.05931711941957474,
				-0.025376997888088226,
				-0.9903110861778259,
				0.12296948581933975
			],
			"scale":[
				0.23599198460578918,
				0.24876078963279724,
				0.24054881930351257
			]
		}
	],
	"materials":[
		{
			"doubleSided":true,
			"name":"orange_leaf.010",
			"pbrMetallicRoughness":{
				"baseColorTexture":{
					"index":0
				},
				"metallicFactor":0,
				"roughnessFactor":0.5
			}
		}
	],
	"meshes":[
		{
			"name":"Cube.317",
			"primitives":[
				{
					"attributes":{
						"POSITION":0,
						"NORMAL":1,
						"TEXCOORD_0":2,
						"TANGENT":3
					},
					"indices":4,
					"material":0
				}
			]
		}
	],
	"textures":[
		{
			"sampler":0,
			"source":0
		}
	],
	"images":[
		{
			"bufferView":5,
			"mimeType":"image/png",
			"name":"orange_leafr"
		}
	],
	"accessors":[
		{
			"bufferView":0,
			"componentType":5126,
			"count":72,
			"max":[
				0.9942890405654907,
				2.020500659942627,
				0.9097532629966736
			],
			"min":[
				-1.1268641948699951,
				-2.1921534538269043,
				-0.8361427783966064
			],
			"type":"VEC3"
		},
		{
			"bufferView":1,
			"componentType":5126,
			"count":72,
			"type":"VEC3"
		},
		{
			"bufferView":2,
			"componentType":5126,
			"count":72,
			"type":"VEC2"
		},
		{
			"bufferView":3,
			"componentType":5126,
			"count":72,
			"type":"VEC4"
		},
		{
			"bufferView":4,
			"componentType":5123,
			"count":72,
			"type":"SCALAR"
		}
	],
	"bufferViews":[
		{
			"buffer":0,
			"byteLength":864,
			"byteOffset":0,
			"target":34962
		},
		{
			"buffer":0,
			"byteLength":864,
			"byteOffset":864,
			"target":34962
		},
		{
			"buffer":0,
			"byteLength":576,
			"byteOffset":1728,
			"target":34962
		},
		{
			"buffer":0,
			"byteLength":1152,
			"byteOffset":2304,
			"target":34962
		},
		{
			"buffer":0,
			"byteLength":144,
			"byteOffset":3456,
			"target":34963
		},
		{
			"buffer":0,
			"byteLength":55914,
			"byteOffset":3600
		}
	],
	"samplers":[
		{
			"magFilter":9729,
			"minFilter":9987
		}
	],
	"buffers":[
		{
			"byteLength":59516,
			"uri":"data:application/octet-stream;base64,"
		}
	]
}
