{
	"asset":{
		"generator":"Khronos glTF Blender I/O v3.6.27",
		"version":"2.0"
	},
	"scene":0,
	"scenes":[
		{
			"extras":{
				"scatter_properties":{},
				"qremesher":{},
				"GRT_Action_Bakery_Global_Settings":{
					"Source_Armature":{},
					"Target_Armature":{}
				},
				"b_export":1,
				"export_path":"/Users/carlosmartorell/Desktop/shoeg-lev-realities-in-transition/a-frame test/",
				"s_output":"exporting...",
				"b_settings":1,
				"b_vr_controllers":0,
				"b_renderer":1,
				"b_aa":1,
				"b_colorManagement":1,
				"b_stats":1,
				"b_export_single_model":0,
				"s_aframe_version":"1.5.0",
				"b_player":1,
				"b_interactive":1,
				"b_sortTransparentObjects":1,
				"b_logarithmicDepthBuffer":1,
				"f_player_speed":0.029999999329447746,
				"s_anisotropy":"2",
				"b_cubemap_background":0,
				"b_show_env_sky":0,
				"b_cubemap":0,
				"b_camera_cube":0,
				"s_cubemap_ext":"jpg",
				"s_cubemap_path":"/Users/carlosmartorell/Desktop/shoeg-lev-realities-in-transition/a-frame\\ test/aframe-prj/env",
				"b_raycast":0
			},
			"name":"Scene",
			"nodes":[
				0
			]
		}
	],
	"nodes":[
		{
			"extras":{
				"ant_landscape":{}
			},
			"mesh":0,
			"name":"Island_2_BigTree_2"
		}
	],
	"materials":[
		{
			"doubleSided":true,
			"name":"tree_br_1",
			"pbrMetallicRoughness":{
				"baseColorTexture":{
					"index":0
				},
				"metallicFactor":0,
				"roughnessFactor":0.5
			}
		}
	],
	"meshes":[
		{
			"name":"Polygon.145",
			"primitives":[
				{
					"attributes":{
						"POSITION":0,
						"NORMAL":1,
						"TEXCOORD_0":2,
						"TANGENT":3
					},
					"indices":4,
					"material":0
				}
			]
		}
	],
	"textures":[
		{
			"sampler":0,
			"source":0
		}
	],
	"images":[
		{
			"bufferView":5,
			"mimeType":"image/png",
			"name":"tree_bluered_1br"
		}
	],
	"accessors":[
		{
			"bufferView":0,
			"componentType":5126,
			"count":640,
			"max":[
				9.293465614318848,
				14.906713485717773,
				6.6804094314575195
			],
			"min":[
				-5.745806694030762,
				-22.571590423583984,
				-5.8180251121521
			],
			"type":"VEC3"
		},
		{
			"bufferView":1,
			"componentType":5126,
			"count":640,
			"type":"VEC3"
		},
		{
			"bufferView":2,
			"componentType":5126,
			"count":640,
			"type":"VEC2"
		},
		{
			"bufferView":3,
			"componentType":5126,
			"count":640,
			"type":"VEC4"
		},
		{
			"bufferView":4,
			"componentType":5123,
			"count":1245,
			"type":"SCALAR"
		}
	],
	"bufferViews":[
		{
			"buffer":0,
			"byteLength":7680,
			"byteOffset":0,
			"target":34962
		},
		{
			"buffer":0,
			"byteLength":7680,
			"byteOffset":7680,
			"target":34962
		},
		{
			"buffer":0,
			"byteLength":5120,
			"byteOffset":15360,
			"target":34962
		},
		{
			"buffer":0,
			"byteLength":10240,
			"byteOffset":20480,
			"target":34962
		},
		{
			"buffer":0,
			"byteLength":2490,
			"byteOffset":30720,
			"target":34963
		},
		{
			"buffer":0,
			"byteLength":157621,
			"byteOffset":33212
		}
	],
	"samplers":[
		{
			"magFilter":9729,
			"minFilter":9987
		}
	],
	"buffers":[
		{
			"byteLength":190836,
			"uri":"data:application/octet-stream;base64,"
		}
	]
}
