{
	"asset":{
		"generator":"Khronos glTF Blender I/O v3.6.27",
		"version":"2.0"
	},
	"scene":0,
	"scenes":[
		{
			"extras":{
				"scatter_properties":{},
				"qremesher":{},
				"GRT_Action_Bakery_Global_Settings":{
					"Source_Armature":{},
					"Target_Armature":{}
				},
				"b_export":1,
				"export_path":"/Users/carlosmartorell/Desktop/shoeg-lev-realities-in-transition/a-frame test/",
				"s_output":"exporting...",
				"b_settings":1,
				"b_vr_controllers":0,
				"b_renderer":1,
				"b_aa":1,
				"b_colorManagement":1,
				"b_stats":1,
				"b_export_single_model":0,
				"s_aframe_version":"1.5.0",
				"b_player":1,
				"b_interactive":1,
				"b_sortTransparentObjects":1,
				"b_logarithmicDepthBuffer":1,
				"f_player_speed":0.029999999329447746,
				"s_anisotropy":"2",
				"b_cubemap_background":0,
				"b_show_env_sky":0,
				"b_cubemap":0,
				"b_camera_cube":0,
				"s_cubemap_ext":"jpg",
				"s_cubemap_path":"/Users/carlosmartorell/Desktop/shoeg-lev-realities-in-transition/a-frame\\ test/aframe-prj/env",
				"b_raycast":0
			},
			"name":"Scene",
			"nodes":[
				0
			]
		}
	],
	"nodes":[
		{
			"extras":{
				"ant_landscape":{},
				"diff_growth_settings":{
					"growth_dir_obj":{}
				}
			},
			"mesh":0,
			"name":"Island_2_Floor",
			"rotation":[
				0,
				0.10282863676548004,
				0,
				0.9946991801261902
			],
			"scale":[
				13.320051193237305,
				11.182585716247559,
				11.28439998626709
			]
		}
	],
	"materials":[
		{
			"doubleSided":true,
			"name":"island2_floor",
			"pbrMetallicRoughness":{
				"baseColorTexture":{
					"index":0
				},
				"metallicFactor":0,
				"roughnessFactor":0.5
			}
		}
	],
	"meshes":[
		{
			"name":"Plane.019",
			"primitives":[
				{
					"attributes":{
						"POSITION":0,
						"NORMAL":1,
						"TEXCOORD_0":2,
						"TANGENT":3
					},
					"indices":4,
					"material":0
				}
			]
		}
	],
	"textures":[
		{
			"sampler":0,
			"source":0
		}
	],
	"images":[
		{
			"bufferView":5,
			"mimeType":"image/png",
			"name":"broken_floor_7r"
		}
	],
	"accessors":[
		{
			"bufferView":0,
			"componentType":5126,
			"count":75,
			"max":[
				0.8966832756996155,
				0.023906495422124863,
				0.9191969633102417
			],
			"min":[
				-1.0480177402496338,
				-0.04901532083749771,
				-0.9067442417144775
			],
			"type":"VEC3"
		},
		{
			"bufferView":1,
			"componentType":5126,
			"count":75,
			"type":"VEC3"
		},
		{
			"bufferView":2,
			"componentType":5126,
			"count":75,
			"type":"VEC2"
		},
		{
			"bufferView":3,
			"componentType":5126,
			"count":75,
			"type":"VEC4"
		},
		{
			"bufferView":4,
			"componentType":5123,
			"count":75,
			"type":"SCALAR"
		}
	],
	"bufferViews":[
		{
			"buffer":0,
			"byteLength":900,
			"byteOffset":0,
			"target":34962
		},
		{
			"buffer":0,
			"byteLength":900,
			"byteOffset":900,
			"target":34962
		},
		{
			"buffer":0,
			"byteLength":600,
			"byteOffset":1800,
			"target":34962
		},
		{
			"buffer":0,
			"byteLength":1200,
			"byteOffset":2400,
			"target":34962
		},
		{
			"buffer":0,
			"byteLength":150,
			"byteOffset":3600,
			"target":34963
		},
		{
			"buffer":0,
			"byteLength":128295,
			"byteOffset":3752
		}
	],
	"samplers":[
		{
			"magFilter":9729,
			"minFilter":9987
		}
	],
	"buffers":[
		{
			"byteLength":132048,
			"uri":"data:application/octet-stream;base64,"
		}
	]
}
