{
	"asset":{
		"generator":"Khronos glTF Blender I/O v3.6.27",
		"version":"2.0"
	},
	"scene":0,
	"scenes":[
		{
			"extras":{
				"scatter_properties":{},
				"qremesher":{},
				"GRT_Action_Bakery_Global_Settings":{
					"Source_Armature":{},
					"Target_Armature":{}
				},
				"b_export":1,
				"export_path":"/Users/carlosmartorell/Desktop/shoeg-lev-realities-in-transition/a-frame test/",
				"s_output":"exporting...",
				"b_settings":1,
				"b_vr_controllers":0,
				"b_renderer":1,
				"b_aa":1,
				"b_colorManagement":1,
				"b_stats":1,
				"b_export_single_model":0,
				"s_aframe_version":"1.5.0",
				"b_player":1,
				"b_interactive":1,
				"b_sortTransparentObjects":1,
				"b_logarithmicDepthBuffer":1,
				"f_player_speed":0.029999999329447746,
				"s_anisotropy":"2",
				"b_cubemap_background":0,
				"b_show_env_sky":1,
				"b_cubemap":0,
				"b_camera_cube":0,
				"s_cubemap_ext":"jpg",
				"s_cubemap_path":"/Users/carlosmartorell/Desktop/shoeg-lev-realities-in-transition/a-frame\\ test/aframe-prj/env",
				"b_raycast":0
			},
			"name":"Scene",
			"nodes":[
				0
			]
		}
	],
	"nodes":[
		{
			"extras":{
				"diff_growth_settings":{
					"growth_dir_obj":{}
				},
				"ant_landscape":{}
			},
			"mesh":0,
			"name":"Island_1_SlimTree_1",
			"scale":[
				0.05400431156158447,
				0.05400431156158447,
				0.05400431156158447
			]
		}
	],
	"materials":[
		{
			"doubleSided":true,
			"name":"chaos_tree_2",
			"pbrMetallicRoughness":{
				"baseColorTexture":{
					"index":0
				},
				"metallicFactor":0,
				"roughnessFactor":0.5
			}
		}
	],
	"meshes":[
		{
			"name":"Cube.011",
			"primitives":[
				{
					"attributes":{
						"POSITION":0,
						"NORMAL":1,
						"TEXCOORD_0":2,
						"TANGENT":3
					},
					"indices":4,
					"material":0
				}
			]
		}
	],
	"textures":[
		{
			"sampler":0,
			"source":0
		}
	],
	"images":[
		{
			"bufferView":5,
			"mimeType":"image/png",
			"name":"chaos_tree_2"
		}
	],
	"accessors":[
		{
			"bufferView":0,
			"componentType":5126,
			"count":152,
			"max":[
				9.722281455993652,
				88.31624603271484,
				38.71356964111328
			],
			"min":[
				-9.060429573059082,
				-45.69578552246094,
				-17.203758239746094
			],
			"type":"VEC3"
		},
		{
			"bufferView":1,
			"componentType":5126,
			"count":152,
			"type":"VEC3"
		},
		{
			"bufferView":2,
			"componentType":5126,
			"count":152,
			"type":"VEC2"
		},
		{
			"bufferView":3,
			"componentType":5126,
			"count":152,
			"type":"VEC4"
		},
		{
			"bufferView":4,
			"componentType":5123,
			"count":216,
			"type":"SCALAR"
		}
	],
	"bufferViews":[
		{
			"buffer":0,
			"byteLength":1824,
			"byteOffset":0,
			"target":34962
		},
		{
			"buffer":0,
			"byteLength":1824,
			"byteOffset":1824,
			"target":34962
		},
		{
			"buffer":0,
			"byteLength":1216,
			"byteOffset":3648,
			"target":34962
		},
		{
			"buffer":0,
			"byteLength":2432,
			"byteOffset":4864,
			"target":34962
		},
		{
			"buffer":0,
			"byteLength":432,
			"byteOffset":7296,
			"target":34963
		},
		{
			"buffer":0,
			"byteLength":96058,
			"byteOffset":7728
		}
	],
	"samplers":[
		{
			"magFilter":9729,
			"minFilter":9987
		}
	],
	"buffers":[
		{
			"byteLength":103788,
			"uri":"data:application/octet-stream;base64,"
		}
	]
}
