{
	"asset":{
		"generator":"Khronos glTF Blender I/O v3.6.27",
		"version":"2.0"
	},
	"scene":0,
	"scenes":[
		{
			"extras":{
				"scatter_properties":{},
				"qremesher":{},
				"GRT_Action_Bakery_Global_Settings":{
					"Source_Armature":{},
					"Target_Armature":{}
				},
				"b_export":1,
				"export_path":"/Users/carlosmartorell/Desktop/shoeg-lev-realities-in-transition/a-frame test/",
				"s_output":"exporting...",
				"b_settings":1,
				"b_vr_controllers":0,
				"b_renderer":1,
				"b_aa":1,
				"b_colorManagement":1,
				"b_stats":1,
				"b_export_single_model":0,
				"s_aframe_version":"1.5.0",
				"b_player":1,
				"b_interactive":1,
				"b_sortTransparentObjects":1,
				"b_logarithmicDepthBuffer":1,
				"f_player_speed":0.029999999329447746,
				"s_anisotropy":"2",
				"b_cubemap_background":0,
				"b_show_env_sky":0,
				"b_cubemap":0,
				"b_camera_cube":0,
				"s_cubemap_ext":"jpg",
				"s_cubemap_path":"/Users/carlosmartorell/Desktop/shoeg-lev-realities-in-transition/a-frame\\ test/aframe-prj/env",
				"b_raycast":0
			},
			"name":"Scene",
			"nodes":[
				0
			]
		}
	],
	"nodes":[
		{
			"extras":{
				"ant_landscape":{}
			},
			"mesh":0,
			"name":"Island_1_Roots_Rock",
			"rotation":[
				0.18796630203723907,
				-0.06692702323198318,
				0.06932830065488815,
				0.9774370789527893
			],
			"scale":[
				0.10704535990953445,
				0.10704534500837326,
				0.10704535990953445
			]
		}
	],
	"materials":[
		{
			"doubleSided":true,
			"name":"roots",
			"pbrMetallicRoughness":{
				"baseColorTexture":{
					"index":0
				},
				"metallicFactor":0,
				"roughnessFactor":0.5
			}
		}
	],
	"meshes":[
		{
			"name":"Cube",
			"primitives":[
				{
					"attributes":{
						"POSITION":0,
						"NORMAL":1,
						"TEXCOORD_0":2,
						"TANGENT":3
					},
					"indices":4,
					"material":0
				}
			]
		}
	],
	"textures":[
		{
			"sampler":0,
			"source":0
		}
	],
	"images":[
		{
			"bufferView":5,
			"mimeType":"image/png",
			"name":"roots"
		}
	],
	"accessors":[
		{
			"bufferView":0,
			"componentType":5126,
			"count":993,
			"max":[
				9.681428909301758,
				31.02267837524414,
				12.958460807800293
			],
			"min":[
				-10.632426261901855,
				-21.26786231994629,
				-29.577064514160156
			],
			"type":"VEC3"
		},
		{
			"bufferView":1,
			"componentType":5126,
			"count":993,
			"type":"VEC3"
		},
		{
			"bufferView":2,
			"componentType":5126,
			"count":993,
			"type":"VEC2"
		},
		{
			"bufferView":3,
			"componentType":5126,
			"count":993,
			"type":"VEC4"
		},
		{
			"bufferView":4,
			"componentType":5123,
			"count":993,
			"type":"SCALAR"
		}
	],
	"bufferViews":[
		{
			"buffer":0,
			"byteLength":11916,
			"byteOffset":0,
			"target":34962
		},
		{
			"buffer":0,
			"byteLength":11916,
			"byteOffset":11916,
			"target":34962
		},
		{
			"buffer":0,
			"byteLength":7944,
			"byteOffset":23832,
			"target":34962
		},
		{
			"buffer":0,
			"byteLength":15888,
			"byteOffset":31776,
			"target":34962
		},
		{
			"buffer":0,
			"byteLength":1986,
			"byteOffset":47664,
			"target":34963
		},
		{
			"buffer":0,
			"byteLength":303444,
			"byteOffset":49652
		}
	],
	"samplers":[
		{
			"magFilter":9729,
			"minFilter":9987
		}
	],
	"buffers":[
		{
			"byteLength":353096,
			"uri":"data:application/octet-stream;base64,"
		}
	]
}
