{
	"asset":{
		"generator":"Khronos glTF Blender I/O v3.6.27",
		"version":"2.0"
	},
	"scene":0,
	"scenes":[
		{
			"extras":{
				"scatter_properties":{},
				"qremesher":{},
				"GRT_Action_Bakery_Global_Settings":{
					"Source_Armature":{},
					"Target_Armature":{}
				},
				"b_export":1,
				"export_path":"/Users/carlosmartorell/Desktop/shoeg-lev-realities-in-transition/a-frame test/",
				"s_output":"exporting...",
				"b_settings":1,
				"b_vr_controllers":0,
				"b_renderer":1,
				"b_aa":1,
				"b_colorManagement":1,
				"b_stats":1,
				"b_export_single_model":0,
				"s_aframe_version":"1.5.0",
				"b_player":1,
				"b_interactive":1,
				"b_sortTransparentObjects":1,
				"b_logarithmicDepthBuffer":1,
				"f_player_speed":0.029999999329447746,
				"s_anisotropy":"2",
				"b_cubemap_background":0,
				"b_show_env_sky":1,
				"b_cubemap":0,
				"b_camera_cube":0,
				"s_cubemap_ext":"jpg",
				"s_cubemap_path":"/Users/carlosmartorell/Desktop/shoeg-lev-realities-in-transition/a-frame\\ test/aframe-prj/env",
				"b_raycast":0
			},
			"name":"Scene",
			"nodes":[
				0
			]
		}
	],
	"nodes":[
		{
			"extras":{
				"diff_growth_settings":{
					"growth_dir_obj":{}
				},
				"ant_landscape":{}
			},
			"mesh":0,
			"name":"Island_1_Tree_1",
			"rotation":[
				0.07170367985963821,
				-0.16776473820209503,
				0.1953766644001007,
				0.9636086225509644
			],
			"scale":[
				0.19703827798366547,
				0.19703824818134308,
				0.19703826308250427
			]
		}
	],
	"materials":[
		{
			"doubleSided":true,
			"name":"chaos_tree_1",
			"pbrMetallicRoughness":{
				"baseColorTexture":{
					"index":0
				},
				"metallicFactor":0,
				"roughnessFactor":0.5
			}
		}
	],
	"meshes":[
		{
			"name":"Cube.001",
			"primitives":[
				{
					"attributes":{
						"POSITION":0,
						"NORMAL":1,
						"TEXCOORD_0":2,
						"TANGENT":3
					},
					"indices":4,
					"material":0
				}
			]
		}
	],
	"textures":[
		{
			"sampler":0,
			"source":0
		}
	],
	"images":[
		{
			"bufferView":5,
			"mimeType":"image/png",
			"name":"white_pine_2"
		}
	],
	"accessors":[
		{
			"bufferView":0,
			"componentType":5126,
			"count":2250,
			"max":[
				18.14158058166504,
				28.227859497070312,
				28.132272720336914
			],
			"min":[
				-23.40729331970215,
				-20.65494155883789,
				-15.928655624389648
			],
			"type":"VEC3"
		},
		{
			"bufferView":1,
			"componentType":5126,
			"count":2250,
			"type":"VEC3"
		},
		{
			"bufferView":2,
			"componentType":5126,
			"count":2250,
			"type":"VEC2"
		},
		{
			"bufferView":3,
			"componentType":5126,
			"count":2250,
			"type":"VEC4"
		},
		{
			"bufferView":4,
			"componentType":5123,
			"count":2250,
			"type":"SCALAR"
		}
	],
	"bufferViews":[
		{
			"buffer":0,
			"byteLength":27000,
			"byteOffset":0,
			"target":34962
		},
		{
			"buffer":0,
			"byteLength":27000,
			"byteOffset":27000,
			"target":34962
		},
		{
			"buffer":0,
			"byteLength":18000,
			"byteOffset":54000,
			"target":34962
		},
		{
			"buffer":0,
			"byteLength":36000,
			"byteOffset":72000,
			"target":34962
		},
		{
			"buffer":0,
			"byteLength":4500,
			"byteOffset":108000,
			"target":34963
		},
		{
			"buffer":0,
			"byteLength":138432,
			"byteOffset":112500
		}
	],
	"samplers":[
		{
			"magFilter":9729,
			"minFilter":9987
		}
	],
	"buffers":[
		{
			"byteLength":250932,
			"uri":"data:application/octet-stream;base64,"
		}
	]
}
