{
	"asset":{
		"generator":"Khronos glTF Blender I/O v3.6.27",
		"version":"2.0"
	},
	"scene":0,
	"scenes":[
		{
			"extras":{
				"scatter_properties":{},
				"qremesher":{},
				"GRT_Action_Bakery_Global_Settings":{
					"Source_Armature":{},
					"Target_Armature":{}
				},
				"b_export":1,
				"export_path":"/Users/carlosmartorell/Desktop/shoeg-lev-realities-in-transition/a-frame test/",
				"s_output":"exporting...",
				"b_settings":1,
				"b_vr_controllers":0,
				"b_renderer":1,
				"b_aa":1,
				"b_colorManagement":1,
				"b_stats":1,
				"b_export_single_model":0,
				"s_aframe_version":"1.5.0",
				"b_player":1,
				"b_interactive":1,
				"b_sortTransparentObjects":1,
				"b_logarithmicDepthBuffer":1,
				"f_player_speed":0.029999999329447746,
				"s_anisotropy":"2",
				"b_cubemap_background":0,
				"b_show_env_sky":0,
				"b_cubemap":0,
				"b_camera_cube":0,
				"s_cubemap_ext":"jpg",
				"s_cubemap_path":"/Users/carlosmartorell/Desktop/shoeg-lev-realities-in-transition/a-frame\\ test/aframe-prj/env",
				"b_raycast":0
			},
			"name":"Scene",
			"nodes":[
				0
			]
		}
	],
	"nodes":[
		{
			"extras":{
				"diff_growth_settings":{
					"growth_dir_obj":{}
				},
				"ant_landscape":{}
			},
			"mesh":0,
			"name":"MarbleBlock_Top",
			"scale":[
				5.996626377105713,
				3.074540853500366,
				3.074540853500366
			]
		}
	],
	"materials":[
		{
			"doubleSided":true,
			"name":"red_vwall_2",
			"pbrMetallicRoughness":{
				"baseColorTexture":{
					"index":0
				},
				"metallicFactor":0,
				"roughnessFactor":0.5
			}
		}
	],
	"meshes":[
		{
			"name":"Cube.324",
			"primitives":[
				{
					"attributes":{
						"POSITION":0,
						"NORMAL":1,
						"TEXCOORD_0":2
					},
					"indices":3,
					"material":0
				}
			]
		}
	],
	"textures":[
		{
			"sampler":0,
			"source":0
		}
	],
	"images":[
		{
			"bufferView":4,
			"mimeType":"image/png",
			"name":"red_vwall_3r"
		}
	],
	"accessors":[
		{
			"bufferView":0,
			"componentType":5126,
			"count":67,
			"max":[
				2.0635626316070557,
				1.8781218528747559,
				2.551809787750244
			],
			"min":[
				-2.171062469482422,
				-1.87229323387146,
				-3.1477646827697754
			],
			"type":"VEC3"
		},
		{
			"bufferView":1,
			"componentType":5126,
			"count":67,
			"type":"VEC3"
		},
		{
			"bufferView":2,
			"componentType":5126,
			"count":67,
			"type":"VEC2"
		},
		{
			"bufferView":3,
			"componentType":5123,
			"count":135,
			"type":"SCALAR"
		}
	],
	"bufferViews":[
		{
			"buffer":0,
			"byteLength":804,
			"byteOffset":0,
			"target":34962
		},
		{
			"buffer":0,
			"byteLength":804,
			"byteOffset":804,
			"target":34962
		},
		{
			"buffer":0,
			"byteLength":536,
			"byteOffset":1608,
			"target":34962
		},
		{
			"buffer":0,
			"byteLength":270,
			"byteOffset":2144,
			"target":34963
		},
		{
			"buffer":0,
			"byteLength":124302,
			"byteOffset":2416
		}
	],
	"samplers":[
		{
			"magFilter":9729,
			"minFilter":9987
		}
	],
	"buffers":[
		{
			"byteLength":126720,
			"uri":"data:application/octet-stream;base64,"
		}
	]
}
