{
	"asset":{
		"generator":"Khronos glTF Blender I/O v3.6.27",
		"version":"2.0"
	},
	"extensionsUsed":[
		"KHR_materials_specular",
		"KHR_materials_ior"
	],
	"scene":0,
	"scenes":[
		{
			"extras":{
				"scatter_properties":{},
				"qremesher":{},
				"GRT_Action_Bakery_Global_Settings":{
					"Source_Armature":{},
					"Target_Armature":{}
				},
				"b_export":1,
				"export_path":"/Users/carlosmartorell/Desktop/shoeg-lev-realities-in-transition/a-frame test/",
				"s_output":"exporting...",
				"b_settings":1,
				"b_vr_controllers":0,
				"b_renderer":1,
				"b_aa":1,
				"b_colorManagement":1,
				"b_stats":1,
				"b_export_single_model":0,
				"s_aframe_version":"1.5.0",
				"b_player":1,
				"b_interactive":1,
				"b_sortTransparentObjects":1,
				"b_logarithmicDepthBuffer":1,
				"f_player_speed":0.029999999329447746,
				"s_anisotropy":"2",
				"b_cubemap_background":0,
				"b_show_env_sky":0,
				"b_cubemap":0,
				"b_camera_cube":0,
				"s_cubemap_ext":"jpg",
				"s_cubemap_path":"/Users/carlosmartorell/Desktop/shoeg-lev-realities-in-transition/a-frame\\ test/aframe-prj/env",
				"b_raycast":0
			},
			"name":"Scene",
			"nodes":[
				0
			]
		}
	],
	"nodes":[
		{
			"extras":{
				"diff_growth_settings":{
					"growth_dir_obj":{}
				},
				"ant_landscape":{}
			},
			"mesh":0,
			"name":"RIT_Logo"
		}
	],
	"materials":[
		{
			"doubleSided":true,
			"extensions":{
				"KHR_materials_specular":{
					"specularColorFactor":[
						0,
						0,
						0
					]
				},
				"KHR_materials_ior":{
					"ior":1.4499999284744263
				}
			},
			"name":"logo-typo-rit-2",
			"pbrMetallicRoughness":{
				"baseColorTexture":{
					"index":0
				},
				"metallicFactor":0,
				"roughnessFactor":0.5
			}
		},
		{
			"doubleSided":true,
			"extensions":{
				"KHR_materials_specular":{
					"specularColorFactor":[
						0,
						0,
						0
					]
				},
				"KHR_materials_ior":{
					"ior":1.4500000476837158
				}
			},
			"name":"logo-rit",
			"pbrMetallicRoughness":{
				"baseColorFactor":[
					0,
					0,
					0,
					1
				],
				"metallicFactor":0,
				"roughnessFactor":0.5
			}
		}
	],
	"meshes":[
		{
			"name":"path46",
			"primitives":[
				{
					"attributes":{
						"POSITION":0,
						"NORMAL":1,
						"TEXCOORD_0":2,
						"TEXCOORD_1":3,
						"TANGENT":4
					},
					"indices":5,
					"material":0
				},
				{
					"attributes":{
						"POSITION":6,
						"NORMAL":7,
						"TEXCOORD_0":8,
						"TEXCOORD_1":9,
						"TANGENT":10
					},
					"indices":11,
					"material":1
				}
			]
		}
	],
	"textures":[
		{
			"sampler":0,
			"source":0
		}
	],
	"images":[
		{
			"bufferView":6,
			"mimeType":"image/png",
			"name":"logo-typo-rit-2"
		}
	],
	"accessors":[
		{
			"bufferView":0,
			"componentType":5126,
			"count":1386,
			"max":[
				3.988262414932251,
				2.7157537937164307,
				0.2686834931373596
			],
			"min":[
				-3.984117269515991,
				-2.8261897563934326,
				-0.4961450397968292
			],
			"type":"VEC3"
		},
		{
			"bufferView":1,
			"componentType":5126,
			"count":1386,
			"type":"VEC3"
		},
		{
			"bufferView":2,
			"componentType":5126,
			"count":1386,
			"type":"VEC2"
		},
		{
			"bufferView":3,
			"componentType":5126,
			"count":1386,
			"type":"VEC2"
		},
		{
			"bufferView":4,
			"componentType":5126,
			"count":1386,
			"type":"VEC4"
		},
		{
			"bufferView":5,
			"componentType":5123,
			"count":1410,
			"type":"SCALAR"
		},
		{
			"bufferView":7,
			"componentType":5126,
			"count":138,
			"max":[
				0.8439667224884033,
				0.7929003834724426,
				0.2684781849384308
			],
			"min":[
				-0.8506190180778503,
				-0.8978773951530457,
				-0.49618610739707947
			],
			"type":"VEC3"
		},
		{
			"bufferView":8,
			"componentType":5126,
			"count":138,
			"type":"VEC3"
		},
		{
			"bufferView":9,
			"componentType":5126,
			"count":138,
			"type":"VEC2"
		},
		{
			"bufferView":10,
			"componentType":5126,
			"count":138,
			"type":"VEC2"
		},
		{
			"bufferView":11,
			"componentType":5126,
			"count":138,
			"type":"VEC4"
		},
		{
			"bufferView":12,
			"componentType":5123,
			"count":168,
			"type":"SCALAR"
		}
	],
	"bufferViews":[
		{
			"buffer":0,
			"byteLength":16632,
			"byteOffset":0,
			"target":34962
		},
		{
			"buffer":0,
			"byteLength":16632,
			"byteOffset":16632,
			"target":34962
		},
		{
			"buffer":0,
			"byteLength":11088,
			"byteOffset":33264,
			"target":34962
		},
		{
			"buffer":0,
			"byteLength":11088,
			"byteOffset":44352,
			"target":34962
		},
		{
			"buffer":0,
			"byteLength":22176,
			"byteOffset":55440,
			"target":34962
		},
		{
			"buffer":0,
			"byteLength":2820,
			"byteOffset":77616,
			"target":34963
		},
		{
			"buffer":0,
			"byteLength":154537,
			"byteOffset":80436
		},
		{
			"buffer":0,
			"byteLength":1656,
			"byteOffset":234976,
			"target":34962
		},
		{
			"buffer":0,
			"byteLength":1656,
			"byteOffset":236632,
			"target":34962
		},
		{
			"buffer":0,
			"byteLength":1104,
			"byteOffset":238288,
			"target":34962
		},
		{
			"buffer":0,
			"byteLength":1104,
			"byteOffset":239392,
			"target":34962
		},
		{
			"buffer":0,
			"byteLength":2208,
			"byteOffset":240496,
			"target":34962
		},
		{
			"buffer":0,
			"byteLength":336,
			"byteOffset":242704,
			"target":34963
		}
	],
	"samplers":[
		{
			"magFilter":9729,
			"minFilter":9987
		}
	],
	"buffers":[
		{
			"byteLength":243040,
			"uri":"data:application/octet-stream;base64,"
		}
	]
}
