{
	"asset":{
		"generator":"Khronos glTF Blender I/O v3.6.27",
		"version":"2.0"
	},
	"scene":0,
	"scenes":[
		{
			"extras":{
				"scatter_properties":{},
				"qremesher":{},
				"GRT_Action_Bakery_Global_Settings":{
					"Source_Armature":{},
					"Target_Armature":{}
				},
				"b_export":1,
				"export_path":"/Users/carlosmartorell/Desktop/shoeg-lev-realities-in-transition/a-frame test/",
				"s_output":"exporting...",
				"b_settings":1,
				"b_vr_controllers":0,
				"b_renderer":1,
				"b_aa":1,
				"b_colorManagement":1,
				"b_stats":1,
				"b_export_single_model":0,
				"s_aframe_version":"1.5.0",
				"b_player":1,
				"b_interactive":1,
				"b_sortTransparentObjects":1,
				"b_logarithmicDepthBuffer":1,
				"f_player_speed":0.029999999329447746,
				"s_anisotropy":"2",
				"b_cubemap_background":0,
				"b_show_env_sky":1,
				"b_cubemap":0,
				"b_camera_cube":0,
				"s_cubemap_ext":"jpg",
				"s_cubemap_path":"/Users/carlosmartorell/Desktop/shoeg-lev-realities-in-transition/a-frame\\ test/aframe-prj/env",
				"b_raycast":0
			},
			"name":"Scene",
			"nodes":[
				0
			]
		}
	],
	"nodes":[
		{
			"extras":{
				"ant_landscape":{
					"ant_terrain_name":"Landscape",
					"at_cursor":1,
					"smooth_mesh":1,
					"tri_face":0,
					"sphere_mesh":0,
					"land_material":"",
					"water_material":"",
					"texture_block":"",
					"subdivision_x":128,
					"subdivision_y":128,
					"mesh_size_x":2.0,
					"mesh_size_y":2.0,
					"mesh_size":2.0,
					"random_seed":66,
					"noise_offset_x":0.0,
					"noise_offset_y":0.0,
					"noise_offset_z":0.0,
					"noise_size_x":1.0,
					"noise_size_y":1.0,
					"noise_size_z":1.0,
					"noise_size":0.16000008583068848,
					"noise_type":15,
					"basis_type":0,
					"vl_basis_type":0,
					"distortion":1.0,
					"hard_noise":0,
					"noise_depth":8,
					"amplitude":0.5,
					"frequency":2.0,
					"dimension":1.0,
					"lacunarity":2.0,
					"offset":1.0,
					"gain":1.0,
					"marble_bias":0,
					"marble_sharp":0,
					"marble_shape":0,
					"height":3.93999981880188,
					"height_invert":0,
					"height_offset":0.11999999731779099,
					"maximum":1.3599998950958252,
					"minimum":-1.0,
					"edge_falloff":3,
					"edge_level":0.0,
					"falloff_x":4.0,
					"falloff_y":4.0,
					"strata_type":0,
					"strata":5.0,
					"water_plane":0,
					"water_level":0.009999999776482582,
					"vert_group":"",
					"remove_double":0,
					"fx_mixfactor":0.7799999713897705,
					"fx_mix_mode":0,
					"fx_type":19,
					"fx_bias":0,
					"fx_turb":0.0,
					"fx_depth":0,
					"fx_frequency":2.0,
					"fx_amplitude":0.5,
					"fx_size":1.8399999141693115,
					"fx_loc_x":0.0,
					"fx_loc_y":0.0,
					"fx_height":1.4199999570846558,
					"fx_offset":0.0,
					"fx_invert":0
				},
				"diff_growth_settings":{
					"growth_dir_obj":{}
				}
			},
			"mesh":0,
			"name":"SnowyMountain_1",
			"rotation":[
				0,
				0.2381080687046051,
				0,
				0.9712386727333069
			],
			"scale":[
				175.1352081298828,
				94.49296569824219,
				157.4901885986328
			]
		}
	],
	"materials":[
		{
			"doubleSided":true,
			"name":"snow_mt",
			"pbrMetallicRoughness":{
				"baseColorTexture":{
					"index":0
				},
				"metallicFactor":0,
				"roughnessFactor":0.5
			}
		}
	],
	"meshes":[
		{
			"name":"Landscape.003",
			"primitives":[
				{
					"attributes":{
						"POSITION":0,
						"NORMAL":1,
						"TEXCOORD_0":2,
						"TANGENT":3
					},
					"indices":4,
					"material":0
				}
			]
		}
	],
	"textures":[
		{
			"sampler":0,
			"source":0
		}
	],
	"images":[
		{
			"bufferView":5,
			"mimeType":"image/png",
			"name":"snow_mt_2"
		}
	],
	"accessors":[
		{
			"bufferView":0,
			"componentType":5126,
			"count":49,
			"max":[
				0.20157410204410553,
				0.6265050172805786,
				0.19751594960689545
			],
			"min":[
				-0.2339276224374771,
				-0.5425273776054382,
				-0.20194046199321747
			],
			"type":"VEC3"
		},
		{
			"bufferView":1,
			"componentType":5126,
			"count":49,
			"type":"VEC3"
		},
		{
			"bufferView":2,
			"componentType":5126,
			"count":49,
			"type":"VEC2"
		},
		{
			"bufferView":3,
			"componentType":5126,
			"count":49,
			"type":"VEC4"
		},
		{
			"bufferView":4,
			"componentType":5123,
			"count":171,
			"type":"SCALAR"
		}
	],
	"bufferViews":[
		{
			"buffer":0,
			"byteLength":588,
			"byteOffset":0,
			"target":34962
		},
		{
			"buffer":0,
			"byteLength":588,
			"byteOffset":588,
			"target":34962
		},
		{
			"buffer":0,
			"byteLength":392,
			"byteOffset":1176,
			"target":34962
		},
		{
			"buffer":0,
			"byteLength":784,
			"byteOffset":1568,
			"target":34962
		},
		{
			"buffer":0,
			"byteLength":342,
			"byteOffset":2352,
			"target":34963
		},
		{
			"buffer":0,
			"byteLength":116995,
			"byteOffset":2696
		}
	],
	"samplers":[
		{
			"magFilter":9729,
			"minFilter":9987
		}
	],
	"buffers":[
		{
			"byteLength":119692,
			"uri":"data:application/octet-stream;base64,"
		}
	]
}
