{
	"asset":{
		"generator":"Khronos glTF Blender I/O v3.6.27",
		"version":"2.0"
	},
	"scene":0,
	"scenes":[
		{
			"extras":{
				"scatter_properties":{},
				"qremesher":{},
				"GRT_Action_Bakery_Global_Settings":{
					"Source_Armature":{},
					"Target_Armature":{}
				},
				"b_export":1,
				"export_path":"/Users/carlosmartorell/Desktop/shoeg-lev-realities-in-transition/a-frame test/",
				"s_output":"exporting...",
				"b_settings":1,
				"b_vr_controllers":0,
				"b_renderer":1,
				"b_aa":1,
				"b_colorManagement":1,
				"b_stats":1,
				"b_export_single_model":0,
				"s_aframe_version":"1.5.0",
				"b_player":1,
				"b_interactive":1,
				"b_sortTransparentObjects":1,
				"b_logarithmicDepthBuffer":1,
				"f_player_speed":0.029999999329447746,
				"s_anisotropy":"2",
				"b_cubemap_background":0,
				"b_show_env_sky":0,
				"b_cubemap":0,
				"b_camera_cube":0,
				"s_cubemap_ext":"jpg",
				"s_cubemap_path":"/Users/carlosmartorell/Desktop/shoeg-lev-realities-in-transition/a-frame\\ test/aframe-prj/env",
				"b_raycast":0
			},
			"name":"Scene",
			"nodes":[
				0
			]
		}
	],
	"nodes":[
		{
			"extras":{
				"ant_landscape":{}
			},
			"mesh":0,
			"name":"SnowCreatureB_6",
			"rotation":[
				0.03676433116197586,
				-0.008102525025606155,
				0.0025708016473799944,
				0.9992879033088684
			],
			"scale":[
				-0.11200877279043198,
				-1.712595820426941,
				-0.11200877279043198
			]
		}
	],
	"materials":[
		{
			"doubleSided":true,
			"name":"dark_branches",
			"pbrMetallicRoughness":{
				"baseColorTexture":{
					"index":0
				},
				"metallicFactor":0,
				"roughnessFactor":0.5
			}
		}
	],
	"meshes":[
		{
			"name":"Cube.168",
			"primitives":[
				{
					"attributes":{
						"POSITION":0,
						"NORMAL":1,
						"TEXCOORD_0":2,
						"TANGENT":3
					},
					"indices":4,
					"material":0
				}
			]
		}
	],
	"textures":[
		{
			"sampler":0,
			"source":0
		}
	],
	"images":[
		{
			"bufferView":5,
			"mimeType":"image/png",
			"name":"dark_branches_t"
		}
	],
	"accessors":[
		{
			"bufferView":0,
			"componentType":5126,
			"count":144,
			"max":[
				7.978713035583496,
				5.087977886199951,
				7.672149181365967
			],
			"min":[
				-8.540691375732422,
				-4.653961658477783,
				-7.994699954986572
			],
			"type":"VEC3"
		},
		{
			"bufferView":1,
			"componentType":5126,
			"count":144,
			"type":"VEC3"
		},
		{
			"bufferView":2,
			"componentType":5126,
			"count":144,
			"type":"VEC2"
		},
		{
			"bufferView":3,
			"componentType":5126,
			"count":144,
			"type":"VEC4"
		},
		{
			"bufferView":4,
			"componentType":5123,
			"count":156,
			"type":"SCALAR"
		}
	],
	"bufferViews":[
		{
			"buffer":0,
			"byteLength":1728,
			"byteOffset":0,
			"target":34962
		},
		{
			"buffer":0,
			"byteLength":1728,
			"byteOffset":1728,
			"target":34962
		},
		{
			"buffer":0,
			"byteLength":1152,
			"byteOffset":3456,
			"target":34962
		},
		{
			"buffer":0,
			"byteLength":2304,
			"byteOffset":4608,
			"target":34962
		},
		{
			"buffer":0,
			"byteLength":312,
			"byteOffset":6912,
			"target":34963
		},
		{
			"buffer":0,
			"byteLength":24988,
			"byteOffset":7224
		}
	],
	"samplers":[
		{
			"magFilter":9729,
			"minFilter":9987
		}
	],
	"buffers":[
		{
			"byteLength":32212,
			"uri":"data:application/octet-stream;base64,"
		}
	]
}
