{
	"asset":{
		"generator":"Khronos glTF Blender I/O v3.6.27",
		"version":"2.0"
	},
	"scene":0,
	"scenes":[
		{
			"extras":{
				"scatter_properties":{},
				"qremesher":{},
				"GRT_Action_Bakery_Global_Settings":{
					"Source_Armature":{},
					"Target_Armature":{}
				},
				"b_export":1,
				"export_path":"/Users/carlosmartorell/Desktop/shoeg-lev-realities-in-transition/a-frame test/",
				"s_output":"exporting...",
				"b_settings":1,
				"b_vr_controllers":0,
				"b_renderer":1,
				"b_aa":1,
				"b_colorManagement":1,
				"b_stats":1,
				"b_export_single_model":0,
				"s_aframe_version":"1.5.0",
				"b_player":1,
				"b_interactive":1,
				"b_sortTransparentObjects":1,
				"b_logarithmicDepthBuffer":1,
				"f_player_speed":0.029999999329447746,
				"s_anisotropy":"2",
				"b_cubemap_background":0,
				"b_show_env_sky":0,
				"b_cubemap":0,
				"b_camera_cube":0,
				"s_cubemap_ext":"jpg",
				"s_cubemap_path":"/Users/carlosmartorell/Desktop/shoeg-lev-realities-in-transition/a-frame\\ test/aframe-prj/env",
				"b_raycast":0
			},
			"name":"Scene",
			"nodes":[
				0
			]
		}
	],
	"nodes":[
		{
			"extras":{
				"ant_landscape":{}
			},
			"mesh":0,
			"name":"TheOctagon_Floor_0_Tree",
			"rotation":[
				0.303791880607605,
				0.2086046040058136,
				0.05795084685087204,
				0.9278127551078796
			],
			"scale":[
				0.7345384359359741,
				0.7345385551452637,
				0.7345384955406189
			]
		}
	],
	"materials":[
		{
			"doubleSided":true,
			"name":"tree_mossy",
			"pbrMetallicRoughness":{
				"baseColorTexture":{
					"index":0
				},
				"metallicFactor":0,
				"roughnessFactor":0.5
			}
		}
	],
	"meshes":[
		{
			"name":"Cube.251",
			"primitives":[
				{
					"attributes":{
						"POSITION":0,
						"NORMAL":1,
						"TEXCOORD_0":2,
						"TANGENT":3
					},
					"indices":4,
					"material":0
				}
			]
		}
	],
	"textures":[
		{
			"sampler":0,
			"source":0
		}
	],
	"images":[
		{
			"bufferView":5,
			"mimeType":"image/png",
			"name":"tree_mossy"
		}
	],
	"accessors":[
		{
			"bufferView":0,
			"componentType":5126,
			"count":2397,
			"max":[
				16.372350692749023,
				23.919090270996094,
				16.638519287109375
			],
			"min":[
				-26.99125862121582,
				-15.951751708984375,
				-18.47169303894043
			],
			"type":"VEC3"
		},
		{
			"bufferView":1,
			"componentType":5126,
			"count":2397,
			"type":"VEC3"
		},
		{
			"bufferView":2,
			"componentType":5126,
			"count":2397,
			"type":"VEC2"
		},
		{
			"bufferView":3,
			"componentType":5126,
			"count":2397,
			"type":"VEC4"
		},
		{
			"bufferView":4,
			"componentType":5123,
			"count":2397,
			"type":"SCALAR"
		}
	],
	"bufferViews":[
		{
			"buffer":0,
			"byteLength":28764,
			"byteOffset":0,
			"target":34962
		},
		{
			"buffer":0,
			"byteLength":28764,
			"byteOffset":28764,
			"target":34962
		},
		{
			"buffer":0,
			"byteLength":19176,
			"byteOffset":57528,
			"target":34962
		},
		{
			"buffer":0,
			"byteLength":38352,
			"byteOffset":76704,
			"target":34962
		},
		{
			"buffer":0,
			"byteLength":4794,
			"byteOffset":115056,
			"target":34963
		},
		{
			"buffer":0,
			"byteLength":89260,
			"byteOffset":119852
		}
	],
	"samplers":[
		{
			"magFilter":9729,
			"minFilter":9987
		}
	],
	"buffers":[
		{
			"byteLength":209112,
			"uri":"data:application/octet-stream;base64,"
		}
	]
}
